<?xml version="1.0" encoding="UTF-8"?>
<svg id="Layer_1" data-name="Layer 1" xmlns="http://www.w3.org/2000/svg" width="80px" height="80px" viewBox="0 0 382.85 209.46">
  <defs>
    <style>
      .cls-1 {
        fill: #fefefc;
        stroke-width: 0px;
      }
    </style>
  </defs>
  <path class="cls-1" d="m266.37,85.75c3.21-.46,6.37-1.25,9.53-2.58,6.25-2.64,11.83-6.8,16.11-12.06,1.3-1.59,2.47-3.29,3.52-5.06,3.69-6.27,5.64-13.49,5.64-20.76,0-14.85-8.4-28.09-17.78-35.84-8.5-7.02-18.43-9.45-29.23-9.45h-76.32l2.97,5.85,1.65,3.24,3.45,6.78,31.77,61.45h-17.14l4.62,9.09h17.14l25.64,50.4h-24.42l-25.64-50.4-4.62-9.09-16.93-33.27-5.1-10.02-12.21-24-5.1-10.02-5.1,10.02-63.51,124.84-4.62,9.09h44.82l4.62-9.09,24.65-48.45h25.62l-4.62-9.09h-26.57l-4.33,8.51-24.95,49.03h-24.42l58.41-114.82,12.21,24,5.1,10.02,11.83,23.25,4.62,9.09,25.8,50.72,4.46,8.77h44.82l-4.62-9.09s-25.26-49.66-25.64-50.39c0,0,2.71,0,2.96,0h17.93c.67,0,1.34,0,2,0l35.3,58.79.09.16h11.36l-35.79-59.6Zm-38.49-8.43L192.66,9.09h64.77c17.66,0,34.62,17.25,34.66,36.2.03,17.66-14.37,32.03-32.03,32.03h-32.18Z"/>
  <g>
    <polygon class="cls-1" points="27.02 208.88 15.94 184.19 11.08 184.19 0 208.88 4.6 208.88 6.1 205.59 13.51 188.6 20.62 204.91 20.61 204.91 22.38 208.88 27.02 208.88"/>
    <polygon class="cls-1" points="68.62 208.88 68.62 184.15 64.37 184.15 64.37 200.28 51.65 184.19 48.17 184.19 48.17 208.88 52.42 208.88 52.42 191.42 66.01 208.88 68.62 208.88"/>
    <path class="cls-1" d="m94.41,187.27c-2.34,2.36-3.68,5.8-3.66,9.45.05,9.41,7.09,12.75,13.1,12.75,3.62,0,6.8-1.21,9.22-3.5l-2.89-2.92c-1.62,1.52-4.02,2.45-6.33,2.45-4.08,0-8.87-2.3-8.92-8.78-.02-2.54.89-4.93,2.51-6.56,1.58-1.6,3.8-2.44,6.42-2.44,2.34,0,4.48.81,6.08,2.28l2.81-2.71c-2.48-2.36-5.55-3.6-8.89-3.6-3.85,0-7.12,1.24-9.45,3.59Z"/>
    <polygon class="cls-1" points="155.73 208.92 155.73 184.22 151.51 184.22 151.51 194.84 138.63 194.84 138.63 184.22 134.38 184.22 134.38 208.92 138.63 208.92 138.63 198.73 151.51 198.73 151.51 208.92 155.73 208.92"/>
    <rect class="cls-1" x="178.72" y="184.19" width="4.22" height="24.7"/>
    <polygon class="cls-1" points="225.81 184.19 205.57 184.19 205.57 188.01 213.56 188.01 213.56 208.88 217.81 208.88 217.81 188.01 225.81 188.01 225.81 184.19"/>
    <path class="cls-1" d="m289.02,208.88h5.27l-7.84-8.84.42-.09c5.37-1.09,6.17-5.28,6.17-7.67,0-5.53-4.57-8.08-8.82-8.1-2,0-3.99,0-5.99-.02-1.91,0-3.83-.02-5.74-.02v24.73h4.25v-8.42h4.94l7.34,8.42Zm-12.28-20.77h7.49c3.16,0,4.57,2.15,4.57,4.28s-1.41,4.28-4.57,4.28h-7.49v-8.56Z"/>
    <polygon class="cls-1" points="328.23 184.19 323.37 184.19 312.29 208.88 316.89 208.88 318.81 204.67 318.79 204.67 325.8 188.6 332.55 204.13 334.67 208.88 339.31 208.88 328.23 184.19"/>
    <path class="cls-1" d="m357.47,196.72c0,6.34,3.93,12.74,12.71,12.74s12.6-6.42,12.67-12.78c.04-3.65-1.29-7.11-3.64-9.49-2.27-2.29-5.39-3.51-9.03-3.51-8.73,0-12.71,6.76-12.71,13.03Zm21.2.04c-.11,6.53-4.46,8.85-8.49,8.85-6.12,0-8.42-4.55-8.53-8.81h0c-.07-2.71.84-5.23,2.5-6.94,1.5-1.54,3.59-2.36,6.03-2.36s4.46.78,5.97,2.31c1.65,1.68,2.57,4.21,2.53,6.94Z"/>
  </g>
</svg>